<?xml version="1.0" encoding="UTF-8"?>
<svg id="Layer_1" data-name="Layer 1" xmlns="http://www.w3.org/2000/svg" viewBox="0 0 174.94 162.08">
  <defs>
    <style>
      .cls-1 {
        fill: #f2f2f2;
      }
    </style>
  </defs>
  <path class="cls-1" d="M49.45.13c10.41,1.99,17.85,4.67,25.53,12.01,6.69,6.39,10.91,14.93,12.05,24.1l6.59-16.57c1.72-3.11,4.28-5.59,6.84-7.98,7.62-7.1,14.85-9.57,25.05-11.56,3.57.3,7.66-.42,11.13,0,18.61,2.24,35.97,21.02,37.91,39.46,3.28,31.08-13.88,41.22-31.9,61.44l-53.28,59.77-2.22,1.28c-18.96-19.72-36.64-40.62-54.84-61.04C14.29,80.82-2.87,70.67.41,39.59,2.35,21.16,19.71,2.37,38.32.13h11.13Z"/>
</svg>