<?xml version="1.0" encoding="UTF-8"?>
<svg id="Layer_2" data-name="Layer 2" xmlns="http://www.w3.org/2000/svg" viewBox="0 0 155.98 152.44">
  <g id="COPY">
    <path d="M78.11,152.44c-12.05-17.13-26.75-35.1-44.11-53.9-2.85-3.34-4.87-5.66-6.06-6.97-10.7-12.05-18.03-22.05-21.99-30C1.98,53.63,0,45.59,0,37.46c0-11.03,3.39-20.04,10.17-27S25.56,0,36.02,0c7.45,0,14.07,1.96,19.85,5.88,5.79,3.92,10.34,9.51,13.67,16.77.48.94,1.07,2.29,1.78,4.03,2.06,5.52,4.32,8.28,6.78,8.28s4.56-2.61,6.54-7.84c.4-1.16.75-2.03,1.07-2.61,3.09-7.84,7.63-13.88,13.61-18.13,5.98-4.25,12.86-6.37,20.63-6.37,10.46,0,19.08,3.48,25.86,10.45s10.17,15.97,10.17,27c0,7.99-1.94,15.92-5.83,23.79-3.88,7.88-11.25,17.99-22.11,30.32-1.43,1.67-3.96,4.5-7.61,8.49-17.28,19.09-31.39,36.55-42.32,52.37Z"/>
  </g>
</svg>