<?xml version="1.0" encoding="UTF-8"?>
<svg id="Layer_2" data-name="Layer 2" xmlns="http://www.w3.org/2000/svg" viewBox="0 0 2400.13 563.86">
  <defs>
    <style>
      .cls-1 {
        fill: #fff;
      }
    </style>
  </defs>
  <g id="PRIMARY_LOGO" data-name="PRIMARY LOGO">
    <g>
      <path class="cls-1" d="M2386.53,409.86c-8.26-6.28-73.75,51.65-89.73,17.54-16.72-35.7,18.49-159.96,8.36-176.1-62.05-47.52-97.36-41.39-146.83,16.52l-60.74,90.76v-95.56c50.88-41.24,192.85-94.3,176.06-176.09-9.77-47.58-83.21-77.96-127.15-78.32-24.49-.2-68.89,34.73-88.39,51.78-43.75,38.27-66.48,75.41-76.5,133.26-2.1,12.12,3.51,41.85-8.68,48.41-17.93,9.66-55.02,2.31-75.79,4.64,3.3-51.95,7.09-98.04,37.6-141.9l-30.6-25.72-128.18,100.04v67.59l-51.3-.02v51.32c19.07-2.43,42.72,2.32,49.21,23.04,3.79,12.08,4.33,88.7-.22,98.16-6.59,13.68-53.4,31.1-67.88,16.52-26.83-27.03,8.85-176.12-7.4-194.13-37.26-21.04-69.11-49.66-112.38-58.96-7.78-1.67-34.15-6.02-40.52-5.64-21.61,1.28-108.68,86.59-119.55,85.71-25.28-31.39-62.64-89.53-108.01-80.22-14.69,3.02-77.97,44.45-93.45,55.76-42.07,30.73-73.49,62.55-77.72,118.05-1.6,21.01,11.63,69.77,8.9,78.51-3.88,12.43-27.26,10.52-34.36-1.88l4.92-391.4C1118.42,28.54,1094.39-.09,1079.13,0l-160.83,62.64-4.62,8.96,9.33,35.3c35.02-14.01,67.99-13.95,74.54,30.28,3.01,20.36-2.19,46.45,0,67.59-46.13-16.87-63.08-5.96-99.36,19.51-73.43,51.55-108.26,113.53-89.66,204.47,11.79,57.64,46.72,114.52,104.82,132.98l91.22-81.92c4.97,21.06,27.18,81.49,51.42,84.01,22.16,2.3,95.97-74.58,123.25-84.03,11.91,36.8,67.16,84.33,106,82.65,15.62-.68,115.76-80.14,124.74-78.03,13.4,31.07,56.06,87.7,94.39,71.14,11.43-4.93,82.77-68.18,89.79-61.78-.36,22.78,24.66,69.61,48.98,69.6,18.39,0,108.12-81.61,132.8-92.91-15.54,40.13,41.5,98.79,77.95,84.98,38.05-14.41,89.54-62.54,129.55-80.29,6.65,13.6-10.06,32.28-10.49,45.05-1.15,34.5,78.74,41.68,102.92,33.36,10.65-3.66,28.32-92.37,34.39-110.07,9.1-26.54,66.27-151.25,75.9-59.25,4.16,39.76-14.96,92.4-8.23,124.78,3.72,17.91,36.88,56.65,56.91,54.69,10.29-1.01,163.62-114.02,165.29-124.22l-13.59-29.63ZM2097.6,132.52c0-2.47,9.25-27.05,11.68-30.27,18.36-24.31,62.15.95,63.41,25.63,1.58,31.08-50.7,62.55-75.09,76.89v-72.25ZM988.23,435.5c-38.04,57.6-72.67-59.85-74.51-88.64-1.19-18.64.06-55.41,21.87-61.86,25.34-7.49,55.76,1.73,60.84,30.42,4.32,24.34,4.64,100.63-8.2,120.08ZM1320.47,299.4c11.3,27.36-41.67,48.64-61.85,54.53-28.56-52.94,35.5-118.33,61.85-54.53ZM1580.37,440.54c-12.47,24.6-43.31,29.84-50.41-1.35-10.22-44.84,24.23-55.84,59.55-66.59.55,23.33,1.73,46.51-9.13,67.94ZM1482.52,361.12c-14.88,5.91-38.61,16.23-49.88,27.04-12.24,11.75-18.18,36.12-24.92,42.65-5.51,5.34-48.9,20.39-58.33,21.1-36.98,2.79-56.02-24.14-71.62-53.81l165.13-87.68c40.7-17.93,84.93-45.6,126.63-22.73,70.85,38.86-63.96,64.28-87.01,73.43ZM1897.14,302.63c28.2.23,53.19,3.15,79.21-9.29l8.65,132.08c-104.46,73.47-88.19-56.23-87.85-122.79Z"/>
      <path class="cls-1" d="M727.23,43.91c-24.32-21.2-83.68-44.05-114.62-30.6-9.69,4.21-64.52,54.82-74.26,65.56-10.81,11.92-20.32,25.01-28.1,39.11-18.49,33.53-25.78,71.27-29.14,109.04-1.76,19.76-2.59,39.58-3.64,59.38-1.25,23.64.95,46.62,2.64,70.21,1.65,22.94,3.3,45.89,4.95,68.83-62.49,33.45-64.14-1.38-60.81-55.14,2.23-35.94,27.57-117.32,23.35-144.3-1.54-9.86-33.42-38.42-42.23-42.02-10.75-4.39-17.24-3.26-27.93-.31-35.74,9.85-82.07,45.04-121.04,56.07-28.91,8.18-54.02,8.04-83.93,6.98,3.3-51.95,7.09-98.04,37.6-141.9l-30.6-25.72L51.3,179.13v67.59l-51.3-.02v51.32c19.07-2.43,42.72,2.32,49.21,23.04,13.65,43.56-6.66,135.15,2.31,184.14,3.98,21.7,51.03,59.57,74.48,51.89l167.68-100.69-21.43-32.21c-119.04,69.01-99.24-38.15-99.79-121.55,17.05-1.49,36.76,2.37,53.35-.25,23.82-3.76,59.37-39.39,79.27-8.77,10.96,16.87,8.72,86.22,7.2,109.22-1.71,25.88-19.37,89.02-17.28,106.73,1.92,16.26,52.75,63.56,73.44,52.23l130.28-86.66c9.81,43.08,44.31,85.44,90.73,88.69l165.64-126.11-16.46-32.72c-29.87,7.69-76.35,51.46-106.51,32.33-23.61-14.97-44.1-114.53-31.04-137.24,54.43-62.16,230.97-164.81,126.15-256.16ZM592.01,251.38v-90.89c0-4.62,7.8-40.59,10.35-45.58,17.59-34.34,55.2,4.22,55.17,31.6-.02,27.3-46.78,83.96-65.53,104.87Z"/>
      <path class="cls-1" d="M437.82,121.94c-3.22-19.62-25.37-62.71-49.43-55.75-7.3,2.11-53.22,60.84-66.35,68.05l18.78,30.77,97-43.08Z"/>
    </g>
  </g>
</svg>